# AST/ASF file generated using VICON BodyLanguage
# -----------------------------------------------
:version 1.10
:name VICON
:units
  mass 1.0
  length 0.45
  angle deg
:documentation
   .ast/.asf automatically generated from VICON data using
   VICON BodyBuilder and BodyLanguage model FoxedUp or BRILLIANT.MOD
:root
   order TX TY TZ RX RY RZ
   axis XYZ
   position 0 0 0  
   orientation 0 0 0 
:bonedata
  begin
     id 1 
     name lhipjoint
     direction 0.521689 -0.742065 0.420928 
     length 2.47002 
     axis 0 0 0  XYZ
  end
  begin
     id 2 
     name lfemur
     direction 0.34202 -0.939693 0  
     length 7.24654  
     axis 0 0 20  XYZ
    dof rx ry rz
    limits (-160.0 20.0)
           (-70.0 70.0)
           (-60.0 70.0)
  end
  begin
     id 3 
     name ltibia
     direction 0.34202 -0.939693 0   
     length 8.04849   
     axis 0 0 20   XYZ
    dof rx
    limits (-10.0 170.0)
  end
  begin
     id 4 
     name lfoot
     direction 0.0745411 -0.2048 0.975961   
     length 1.72367   
     axis -90 7.62852e-016 20   XYZ
    dof rx rz
    limits (-45.0 90.0)
           (-70.0 20.0)
  end
  begin
     id 5 
     name ltoes
     direction 1.53556e-011 -4.21901e-011 1   
     length 0.87311   
     axis -90 7.62852e-016 20   XYZ
    dof rx
    limits (-90.0 20.0)
  end
  begin
     id 6 
     name rhipjoint
     direction -0.52849 -0.738415 0.418857   
     length 2.48223  
     axis 0 0 0  XYZ 
  end
  begin
     id 7 
     name rfemur
     direction -0.34202 -0.939693 0   
     length 7.15571   
     axis 0 0 -20   XYZ
    dof rx ry rz
    limits (-160.0 20.0)
           (-70.0 70.0)
           (-70.0 60.0)
  end
  begin
     id 8 
     name rtibia
     direction -0.34202 -0.939693 0   
     length 7.81659   
     axis 0 0 -20   XYZ
    dof rx
    limits (-10.0 170.0)
 end
 begin
     id 9 
     name rfoot
     direction -0.0917348 -0.252039 0.963359   
     length 1.84382  
     axis -90 -7.62852e-016 -20   XYZ
    dof rx rz
    limits (-45.0 90.0)
           (-20.0 70.0)
  end
  begin
     id 10 
     name rtoes
     direction -1.53551e-011 -4.21879e-011 1   
     length 0.927771   
     axis -90 -7.62852e-016 -20   XYZ
    dof rx
    limits (-90.0 20.0)
  end
  begin
     id 11 
     name lowerback
     direction 0.00583058 0.999822 0.0179296   
     length 2.1429   
     axis 0 0 0   XYZ
    dof rx ry rz
    limits (-20.0 45.0)
           (-30.0 30.0)
           (-30.0 30.0)
  end
  begin
     id 12 
     name upperback
     direction -0.0137999 0.999752 -0.0175071   
     length 2.14252   
     axis 0 0 0   XYZ
    dof rx ry rz
    limits (-20.0 45.0)
           (-30.0 30.0)
           (-30.0 30.0)
  end
  begin
     id 13 
     name thorax
     direction -0.0158036 0.99955 -0.0254909   
     length 2.1383   
     axis 0 0 0   XYZ
    dof rx ry rz
    limits (-20.0 45.0)
           (-30.0 30.0)
           (-30.0 30.0)
  end
  begin
     id 14 
     name lowerneck
     direction -0.0101179 0.999403 -0.0330262   
     length 1.65808   
     axis 0 0 0   XYZ
    dof rx ry rz
    limits (-20.0 45.0)
           (-30.0 30.0)
           (-30.0 30.0)
  end
  begin
     id 15 
     name upperneck
     direction 0.0497734 0.995978 -0.074501   
     length 1.5897   
     axis 0 0 0   XYZ
    dof rx ry rz
    limits (-20.0 45.0)
           (-30.0 30.0)
           (-30.0 30.0)
  end
  begin
     id 16
     name head
     direction 0.0189524 0.999519 -0.0245438  
     length 1.74024  
     axis 0 0 0   XYZ
    dof rx ry rz
    limits (-20.0 45.0)
           (-30.0 30.0)
           (-30.0 30.0)
  end
  begin
     id 17 
     name lclavicle
     direction 0.945604 0.324422 0.0241537  
     length 3.59089  
     axis 0 0 0   XYZ
    dof ry rz
    limits (-20.0 10.0)
           (0.0 20.0)
  end
  begin
     id 18 
     name lhumerus
     direction 1 -4.48964e-011 -2.63524e-027   
     length 5.2391   
     axis 180 -30 -90   XYZ
    dof rx ry rz
    limits (-60.0 90.0)
           (-90.0 90.0)
           (-90.0 90.0)
  end
  begin
     id 19
     name lradius
     direction 1 -4.48969e-011 3.86978e-028   
     length 3.31467   
     axis 180 -30 -90   XYZ
    dof rx
    limits (-10.0 170.0)
  end
  begin
     id 20
     name lwrist
     direction 1 -4.48963e-011 7.20928e-028   
     length 1.65734   
     axis -5.52449e-016 90 90   XYZ
    dof ry
    limits (-180.0 0.0)
 end
  begin
     id 21 
     name lhand
     direction 1 -4.48964e-011 1.44186e-027   
     length 0.9659   
     axis -9.20027e-016 90 90   XYZ
    dof rx rz
    limits (-90.0 90.0)
           (-45.0 45.0)
  end
  begin
     id 22 
     name lfingers
     direction 1 -4.48965e-011 2.88371e-027   
     length 0.778733   
     axis -1.84005e-015 90 90   XYZ
    dof rx
    limits (0.0 90.0)
  end
  begin
     id 23
     name lthumb
     direction 0.707107 -6.34931e-011 0.707107   
     length 1.11811   
     axis -90 45 2.85299e-015   XYZ
    dof rx rz
    limits (-45.0 45.0)
           (-45.0 45.0)
  end
  begin
     id 24 
     name rclavicle
     direction -0.923762 0.370785 0.0958234   
     length 3.54196  
     axis 0 0 0   XYZ 
    dof ry rz
    limits (-10.0 20.0)
           (-20.0 0.0)
  end
  begin
     id 25 
     name rhumerus
     direction -1 -4.48966e-011 1.18702e-017  
     length 5.30252   
     axis 180 30 90   XYZ
    dof rx ry rz
    limits (-90.0 60.0)
           (-90.0 90.0)
           (-90.0 90.0)
  end
  begin
     id 26 
     name rradius
     direction -1 -4.48966e-011 4.46736e-027   
     length 3.67875   
     axis 180 30 90   XYZ
    dof rx
    limits (-10.0 170.0)
  end
  begin
     id 27 
     name rwrist
     direction -1 -4.48966e-011 7.20928e-028   
     length 1.83937   
     axis -5.52449e-016 -90 -90   XYZ
    dof ry
    limits (-180.0 0.0)
  end
  begin
     id 28
     name rhand
     direction -1 -4.48973e-011 1.44186e-027   
     length 0.594811   
     axis -9.20027e-016 -90 -90   XYZ
    dof rx rz
    limits (-90.0 90.0)
           (-45.0 45.0)
  end
  begin
     id 29
     name rfingers
     direction -1 -4.48963e-011 2.88371e-027   
     length 0.479552   
     axis -1.84005e-015 -90 -90   XYZ
    dof rx
    limits (0.0 90.0)
  end
  begin
     id 30
     name rthumb
     direction -0.707107 -6.34932e-011 0.707107   
     length 0.688544   
     axis -90 -45 -2.85299e-015   XYZ
    dof rx rz
    limits (-45.0 45.0)
           (-45.0 45.0)
  end
:hierarchy
  begin
    root lhipjoint rhipjoint lowerback
    lhipjoint lfemur
    lfemur ltibia
    ltibia lfoot
    lfoot ltoes
    rhipjoint rfemur
    rfemur rtibia
    rtibia rfoot
    rfoot rtoes
    lowerback upperback
    upperback thorax
    thorax lowerneck lclavicle rclavicle
    lowerneck upperneck
    upperneck head
    lclavicle lhumerus
    lhumerus lradius
    lradius lwrist
    lwrist lhand lthumb
    lhand lfingers
    rclavicle rhumerus
    rhumerus rradius
    rradius rwrist
    rwrist rhand rthumb
    rhand rfingers
  end

#!OML:ASF E:\acrobat2\Project_11_07_03\Capture day 1\Session 1\Acrobat.ASF
:FULLY-SPECIFIED
:DEGREES
744
root 11.7588 21.0157 23.0426 361.927 -1.32799 2.50028
lowerback -10.1229 0.139609 -0.704964
upperback -5.45113 0.267146 -2.38593
thorax 0.0189739 0.113594 -2.0442
lowerneck -2.48731 -2.49348 -2.39661
upperneck 12.9858 -3.75413 4.30488
head 4.41531 -1.74201 1.54154
rclavicle 1.00386e-014 -4.77083e-015
rhumerus 78.7386 -33.1829 -45.3715
rradius 25.0042
rwrist 0.0962332
rhand -27.9463 -26.9765
rfingers 7.12502
rthumb -1.33406 -56.9521
lclavicle 1.00386e-014 -4.77083e-015
lhumerus 82.6053 25.1253 36.6432
lradius 25.6988
lwrist 6.15311
lhand -29.2525 -20.1294
lfingers 7.12502
lthumb -2.59557 9.83455
rfemur 8.92098 4.41547 17.9506
rtibia 6.36111e-015
rfoot -27.2365 -18.8565
rtoes 25.0219
lfemur -7.70139 -3.78193 -15.5931
ltibia 27.2191
lfoot -24.9254 -8.37514
ltoes -2.40792
745
root 11.7588 21.0168 23.0502 361.941 -1.31845 2.57633
lowerback -10.0681 0.136321 -0.791509
upperback -5.48023 0.268608 -2.42089
thorax -0.041445 0.115407 -2.03165
lowerneck -2.64785 -2.55721 -2.36214
upperneck 13.1118 -3.8365 4.22894
head 4.48177 -1.7818 1.50598
rclavicle 1.98785e-015 2.74323e-014
rhumerus 78.7218 -33.229 -45.4241
rradius 25.0046
rwrist 0.191314
rhand -27.9035 -26.9528
rfingers 7.12502
rthumb -1.29267 -56.9286
lclavicle 1.98785e-015 2.74323e-014
lhumerus 82.5388 24.997 36.4818
lradius 25.8385
lwrist 6.35563
lhand -29.2841 -20.1792
lfingers 7.12502
lthumb -2.62606 9.78435
rfemur 8.93124 4.39917 17.8639
rtibia -2.70347e-014
rfoot -27.2312 -18.8401
rtoes 25.105
lfemur -7.67096 -3.77948 -15.6796
ltibia 27.1696
lfoot -24.9736 -8.31261
ltoes -2.68975
746
root 11.7584 21.0175 23.0572 361.97 -1.29754 2.61281
lowerback -10.0187 0.126231 -0.846605
upperback -5.52356 0.257841 -2.43934
thorax -0.114001 0.110672 -2.02096
lowerneck -2.8549 -2.59587 -2.33669
upperneck 13.2669 -3.88973 4.19322
head 4.5648 -1.80461 1.48483
rclavicle 1.10325e-014 -2.0276e-014
rhumerus 78.697 -33.251 -45.4691
rradius 24.9937
rwrist 0.247941
rhand -27.8763 -26.8907
rfingers 7.12502
rthumb -1.26644 -56.8667
lclavicle 1.10325e-014 -2.0276e-014
lhumerus 82.3571 24.881 36.1187
lradius 25.985
lwrist 6.72607
lhand -29.3213 -20.1977
lfingers 7.12502
lthumb -2.66198 9.76545
rfemur 8.929 4.37173 17.823
rtibia 4.29375e-014
rfoot -27.2452 -18.7952
rtoes 25.355
lfemur -7.67471 -3.73829 -15.7145
ltibia 27.1482
lfoot -25.0648 -8.24234
ltoes -3.03626
747
root 11.7581 21.0181 23.064 362.018 -1.27278 2.58636
lowerback -9.98649 0.119904 -0.839137
upperback -5.57929 0.246634 -2.43762
thorax -0.189864 0.104662 -2.02464
lowerneck -2.97438 -2.62064 -2.36522
upperneck 13.3889 -3.92688 4.21144
head 4.62444 -1.8206 1.4912
rclavicle 3.47873e-015 -1.43125e-014
rhumerus 78.6577 -33.2605 -45.5
rradius 24.9761
rwrist 0.271954
rhand -27.8477 -26.784
rfingers 7.12502
rthumb -1.23883 -56.7601
lclavicle 3.47873e-015 -1.43125e-014
lhumerus 82.1677 24.7495 35.7554
lradius 26.1031
lwrist 7.09605
lhand -29.3516 -20.2118
lfingers 7.12502
lthumb -2.69128 9.75095
rfemur 8.90633 4.34158 17.8503
rtibia 3.18055e-014
rfoot -27.2576 -18.7458
rtoes 25.7006
lfemur -7.71231 -3.68258 -15.6758
ltibia 27.1549
lfoot -25.125 -8.19913
ltoes -3.51691
748
root 11.7583 21.019 23.0709 362.078 -1.25131 2.4946
lowerback -9.97795 0.124691 -0.760024
upperback -5.63724 0.244564 -2.41868
thorax -0.254599 0.101894 -2.04993
lowerneck -3.04471 -2.63821 -2.39222
upperneck 13.4713 -3.95552 4.24574
head 4.66367 -1.83241 1.50349
rclavicle 5.26779e-015 1.43125e-014
rhumerus 78.829 -33.2201 -45.8375
rradius 24.8743
rwrist 0.547671
rhand -27.8238 -26.6467
rfingers 7.12502
rthumb -1.2157 -56.623
lclavicle 5.26779e-015 1.43125e-014
lhumerus 82.0718 24.5876 35.5682
lradius 26.1624
lwrist 7.30315
lhand -29.367 -20.2279
lfingers 7.12502
lthumb -2.70611 9.73465
rfemur 8.8678 4.31651 17.947
rtibia -6.36111e-015
rfoot -27.2495 -18.7171
rtoes 26.0421
lfemur -7.76614 -3.629 -15.5652
ltibia 27.1769
lfoot -25.2022 -8.16466
ltoes -3.86497
749
root 11.7592 21.0202 23.0782 362.14 -1.23705 2.36959
lowerback -9.99024 0.137388 -0.639822
upperback -5.6875 0.250209 -2.39034
thorax -0.299601 0.102193 -2.08786
lowerneck -3.07402 -2.65337 -2.39909
upperneck 13.5077 -3.97858 4.26008
head 4.681 -1.84256 1.50731
rclavicle -7.65321e-015 1.15295e-014
rhumerus 79.1066 -33.1594 -46.3187
rradius 24.7426
rwrist 0.935919
rhand -27.8005 -26.518
rfingers 7.12502
rthumb -1.1932 -56.4944
lclavicle -7.65321e-015 1.15295e-014
lhumerus 82.0533 24.4181 35.5156
lradius 26.1714
lwrist 7.36752
lhand -29.3672 -20.2204
lfingers 7.12502
lthumb -2.70634 9.74217
rfemur 8.82323 4.30001 18.0779
rtibia -1.59028e-014
rfoot -27.2064 -18.7315
rtoes 26.2412
lfemur -7.81402 -3.58682 -15.4217
ltibia 27.1929
lfoot -25.2127 -8.16852
ltoes -3.87896
